<?xml version="1.0" encoding="utf-8"?>
<!-- Generator: Adobe Illustrator 19.0.0, SVG Export Plug-In . SVG Version: 6.00 Build 0)  -->
<svg version="1.1" id="Layer_1" xmlns="http://www.w3.org/2000/svg" xmlns:xlink="http://www.w3.org/1999/xlink" x="0px" y="0px"
	 viewBox="0 0 1207.4 222" style="enable-background:new 0 0 1207.4 222;" xml:space="preserve">
<style type="text/css">
	.st0{stroke:#000000;stroke-width:5;stroke-miterlimit:10;}
</style>
<g id="XMLID_241_">
	<path id="XMLID_242_" d="M82.4,21.7c6.8,7.9,10.6,16.9,11.4,26.9H80.9c-1.5-7.6-4.4-13.7-8.8-18.1c-4.4-4.5-10.5-6.7-18.4-6.7
		c-9.6,0-17.4,4.1-23.4,12.3c-5.9,8.2-8.9,20.7-8.9,37.7c0,13.9,2.7,25.1,8,33.7c5.4,8.6,13.3,12.9,24,12.9
		c9.8,0,17.2-4.5,22.3-13.6c2.7-4.8,4.7-11.1,6.1-18.9h12.9c-1.2,12.5-5,22.9-11.5,31.3c-7.8,10.2-18.3,15.2-31.5,15.2
		c-11.4,0-20.9-4.2-28.7-12.5C13,111,7.9,94,7.9,71c0-17.5,3.8-31.8,11.5-42.9C27.6,15.9,39,9.8,53.6,9.8
		C66,9.8,75.6,13.8,82.4,21.7z"/>
	<path id="XMLID_244_" d="M183.1,30c6.5,10.5,9.7,23.9,9.7,40.2c0,17.7-3.7,32.4-11.1,44.1c-8.7,13.8-21.1,20.6-37.3,20.6
		c-15.1,0-26.9-6-35.5-18c-7.7-11.6-11.5-26.3-11.5-44c0-16,3.3-29.7,9.9-41.1c8.4-14.6,20.9-21.9,37.5-21.9
		C162,9.8,174.8,16.5,183.1,30z M171.4,105.3c5.2-10.1,7.8-21.8,7.8-34.9c0-13.9-3-25.1-9-33.6c-6-8.5-14.3-12.7-24.7-12.7
		c-10.1,0-18.4,4.2-24.8,12.6c-6.4,8.4-9.6,20.8-9.6,37.2c0,13.1,2.7,24.2,8.2,33.2c5.5,9,14.4,13.5,26.7,13.5
		C157.7,120.5,166.2,115.5,171.4,105.3z"/>
	<path id="XMLID_247_" d="M200.1,13h15.7l49.5,95.9V13h12.6v118.4H263l-50.2-95.8v95.8h-12.7V13z"/>
	<path id="XMLID_249_" d="M360.4,21.7c6.8,7.9,10.6,16.9,11.4,26.9h-12.9c-1.5-7.6-4.4-13.7-8.8-18.1c-4.4-4.5-10.5-6.7-18.4-6.7
		c-9.6,0-17.4,4.1-23.4,12.3c-5.9,8.2-8.9,20.7-8.9,37.7c0,13.9,2.7,25.1,8,33.7c5.4,8.6,13.3,12.9,24,12.9
		c9.8,0,17.2-4.5,22.3-13.6c2.7-4.8,4.7-11.1,6.1-18.9h12.9c-1.2,12.5-5,22.9-11.5,31.3c-7.8,10.2-18.3,15.2-31.5,15.2
		c-11.4,0-20.9-4.2-28.7-12.5c-10.2-11-15.3-28-15.3-51c0-17.5,3.8-31.8,11.5-42.9c8.3-12.1,19.7-18.2,34.2-18.2
		C343.9,9.8,353.5,13.8,360.4,21.7z"/>
	<path id="XMLID_251_" d="M381.6,13H453v14.5h-58.5v35.9h54.1v13.7h-54.1v40.1H454v14.1h-72.4V13z"/>
	<path id="XMLID_253_" d="M491.4,13h15l35.5,118.4h-14.5L517.5,96h-38.7l-10.6,35.4h-13.6L491.4,13z M513.2,82.9l-14.9-52.3
		l-15.8,52.3H513.2z"/>
	<path id="XMLID_256_" d="M545.5,13h13.3v104.3h49.6v14.1h-62.9V13z"/>
	<path id="XMLID_258_" d="M614.2,13h71.4v14.5h-58.5v35.9h54.1v13.7h-54.1v40.1h59.5v14.1h-72.4V13z"/>
	<path id="XMLID_260_" d="M696.2,13h39.7c13.5,0,23.9,5.8,31.3,17.3c6.6,10.4,9.9,23.8,9.9,40c0,12.6-2,23.9-5.9,34.1
		c-6.9,17.9-18.7,26.9-35.5,26.9h-39.5V13z M733.2,117.7c4.5,0,8.2-0.6,11.1-1.7c5.2-2.1,9.4-6.1,12.7-12.1
		c2.6-4.8,4.5-10.9,5.7-18.4c0.7-4.5,1-8.6,1-12.4c0-14.7-2.4-26-7.2-34.2c-4.8-8.1-12.6-12.2-23.3-12.2h-23.5v90.9H733.2z"/>
	<path id="XMLID_263_" class="st0" d="M808.7,13l18.5,96.3L849.3,13h14.4l22.1,96.3L904.3,13h14.5l-25.7,118.4h-13.9l-22.6-98.1
		l-22.7,98.1h-13.9L794.3,13H808.7z"/>
	<path id="XMLID_265_" class="st0" d="M925.6,13H939v118.4h-13.4V13z"/>
	<path id="XMLID_267_" class="st0" d="M952.1,13h15.7l49.5,95.9V13h12.6v118.4h-14.9l-50.2-95.8v95.8h-12.7V13z"/>
	<path id="XMLID_269_" class="st0" d="M1043.5,13h71.4v14.5h-58.5v35.9h54.1v13.7h-54.1v40.1h59.5v14.1h-72.4V13z"/>
	<path id="XMLID_271_" class="st0" d="M1133.4,93.2c0.3,6.7,1.6,12.2,3.9,16.4c4.4,7.8,12.2,11.8,23.3,11.8c5,0,9.5-0.9,13.6-2.6
		c7.9-3.3,11.9-9.3,11.9-17.9c0-6.4-1.7-11-5-13.8c-3.4-2.7-8.7-5-15.9-7l-13.3-3.6c-8.7-2.4-14.8-5-18.4-7.8
		c-6.2-4.9-9.3-12.3-9.3-22.2c0-10.6,3-19.4,9.1-26.2c6.1-6.8,14.7-10.2,25.9-10.2c10.3,0,19,3,26.2,9c7.2,6,10.8,15.6,10.8,28.7
		h-12.5c-0.7-6.3-2.1-11.2-4.3-14.6c-4-6.2-10.9-9.3-20.6-9.3c-7.8,0-13.4,2-16.9,6c-3.4,4-5.1,8.6-5.1,13.9c0,5.8,2,10,6,12.7
		c2.6,1.7,8.6,3.9,17.8,6.4l13.7,3.8c6.6,1.8,11.7,4.3,15.3,7.5c6.2,5.5,9.3,13.6,9.3,24.1c0,13.1-3.9,22.5-11.8,28.1
		c-7.9,5.6-17.1,8.5-27.5,8.5c-12.2,0-21.7-3.8-28.6-11.3c-6.9-7.5-10.3-17.6-10.1-30.4H1133.4z"/>
</g>
<g id="XMLID_172_">
	<path id="XMLID_173_" d="M16.9,162.3v27.4c0,3.2,0.6,5.9,1.7,8c1.6,3.2,4.4,4.8,8.3,4.8c4.7,0,7.9-1.7,9.5-5.2
		c0.9-1.9,1.4-4.4,1.4-7.6v-27.4h5.6v24.9c0,5.4-0.7,9.6-2,12.6c-2.5,5.3-7.2,8-14,8s-11.6-2.7-14-8c-1.4-2.9-2-7.1-2-12.6v-24.9
		H16.9z"/>
	<path id="XMLID_175_" d="M52,162.3h6.5l20.6,35.9v-35.9h5.2v44.3h-6.2l-20.9-35.9v35.9H52V162.3z"/>
	<path id="XMLID_177_" d="M94.3,162.3h5.6v44.3h-5.6V162.3z"/>
	<path id="XMLID_179_" d="M146.1,206.5l-2.8,3.6l-6.3-5.2c-1.5,0.9-3.2,1.6-4.9,2.2s-3.7,0.8-5.8,0.8c-6.3,0-11.3-2.3-14.9-6.8
		c-3.2-4.4-4.7-9.9-4.7-16.5c0-6,1.4-11.1,4.1-15.4c3.5-5.5,8.7-8.2,15.6-8.2c7.2,0,12.5,2.5,16,7.5c2.7,3.9,4.1,8.9,4.1,15
		c0,2.9-0.3,5.6-1,8.2c-1,4-2.6,7.3-5,9.8L146.1,206.5z M130.2,202.3c1-0.2,1.9-0.5,2.6-1l-4.5-3.8l2.8-3.7l5.3,4.5
		c1.7-2.1,2.8-4.4,3.4-7c0.6-2.6,0.9-5.1,0.9-7.4c0-5.2-1.3-9.4-3.8-12.6c-2.5-3.2-5.9-4.8-10.3-4.8c-4.4,0-7.9,1.5-10.5,4.6
		c-2.6,3-3.9,7.7-3.9,14.1c0,5.3,1.2,9.6,3.7,12.7s6.1,4.7,10.9,4.7C128.2,202.6,129.2,202.5,130.2,202.3z"/>
	<path id="XMLID_182_" d="M159,162.3v27.4c0,3.2,0.6,5.9,1.7,8c1.6,3.2,4.4,4.8,8.3,4.8c4.7,0,7.9-1.7,9.5-5.2
		c0.9-1.9,1.4-4.4,1.4-7.6v-27.4h5.6v24.9c0,5.4-0.7,9.6-2,12.6c-2.5,5.3-7.2,8-14,8s-11.6-2.7-14-8c-1.4-2.9-2-7.1-2-12.6v-24.9
		H159z"/>
	<path id="XMLID_184_" d="M194.6,162.3h29.7v5.4H200v13.4h22.5v5.1H200v15h24.8v5.3h-30.1V162.3z"/>
	<path id="XMLID_186_" d="M250.5,162.3l7.7,36l9.2-36h6l9.2,36l7.7-36h6.1l-10.7,44.3h-5.8l-9.4-36.7l-9.5,36.7h-5.8l-10.7-44.3
		H250.5z"/>
	<path id="XMLID_188_" d="M302.7,162.3h5.6v44.3h-5.6V162.3z"/>
	<path id="XMLID_190_" d="M317.2,162.3h6.5l20.6,35.9v-35.9h5.2v44.3h-6.2l-20.9-35.9v35.9h-5.3V162.3z"/>
	<path id="XMLID_192_" d="M358.8,162.3h29.7v5.4h-24.3v13.4h22.5v5.1h-22.5v15H389v5.3h-30.1V162.3z"/>
	<path id="XMLID_194_" d="M399.8,192.4c0.1,2.5,0.7,4.6,1.6,6.1c1.8,2.9,5.1,4.4,9.7,4.4c2.1,0,4-0.3,5.7-1c3.3-1.2,4.9-3.5,4.9-6.7
		c0-2.4-0.7-4.1-2.1-5.2c-1.4-1-3.6-1.9-6.6-2.6l-5.5-1.4c-3.6-0.9-6.2-1.9-7.7-2.9c-2.6-1.8-3.9-4.6-3.9-8.3c0-4,1.3-7.2,3.8-9.8
		c2.5-2.6,6.1-3.8,10.8-3.8c4.3,0,7.9,1.1,10.9,3.4s4.5,5.8,4.5,10.8h-5.2c-0.3-2.4-0.9-4.2-1.8-5.5c-1.7-2.3-4.5-3.5-8.6-3.5
		c-3.3,0-5.6,0.7-7,2.2c-1.4,1.5-2.1,3.2-2.1,5.2c0,2.2,0.8,3.8,2.5,4.8c1.1,0.6,3.6,1.4,7.4,2.4l5.7,1.4c2.8,0.7,4.9,1.6,6.4,2.8
		c2.6,2.1,3.9,5.1,3.9,9c0,4.9-1.6,8.4-4.9,10.5c-3.3,2.1-7.1,3.2-11.4,3.2c-5.1,0-9-1.4-11.9-4.2c-2.9-2.8-4.3-6.6-4.2-11.4H399.8z
		"/>
	<path id="XMLID_196_" d="M450.4,162.3h28.3v5.4H456v13.4h20v5.3h-20v20.1h-5.5V162.3z"/>
	<path id="XMLID_198_" d="M485.3,162.3h18.9c3.1,0,5.7,0.5,7.7,1.5c3.8,1.9,5.7,5.4,5.7,10.5c0,2.7-0.5,4.8-1.5,6.5
		c-1,1.7-2.4,3-4.2,4.1c1.6,0.7,2.8,1.6,3.6,2.8c0.8,1.1,1.3,3,1.3,5.6l0.2,5.9c0.1,1.7,0.2,2.9,0.4,3.8c0.3,1.4,0.9,2.3,1.8,2.7v1
		h-6.8c-0.2-0.4-0.3-0.9-0.4-1.5c-0.1-0.6-0.2-1.8-0.3-3.5l-0.3-7.4c-0.1-2.9-1.1-4.8-3-5.8c-1.1-0.5-2.7-0.8-5-0.8h-12.6v19h-5.5
		V162.3z M503.6,182.6c2.6,0,4.6-0.6,6.1-1.7c1.5-1.1,2.3-3.2,2.3-6.1c0-3.2-1.1-5.3-3.2-6.5c-1.1-0.6-2.6-0.9-4.5-0.9h-13.5v15.1
		H503.6z"/>
	<path id="XMLID_201_" d="M559.3,168.7c2.7,3.9,4.1,8.9,4.1,15c0,6.6-1.5,12.1-4.6,16.5c-3.6,5.1-8.8,7.7-15.5,7.7
		c-6.3,0-11.2-2.3-14.8-6.8c-3.2-4.3-4.8-9.8-4.8-16.5c0-6,1.4-11.1,4.1-15.4c3.5-5.5,8.7-8.2,15.6-8.2
		C550.5,161.1,555.8,163.7,559.3,168.7z M554.4,196.9c2.2-3.8,3.3-8.1,3.3-13.1c0-5.2-1.3-9.4-3.8-12.6c-2.5-3.2-5.9-4.8-10.3-4.8
		c-4.2,0-7.7,1.6-10.3,4.7s-4,7.8-4,13.9c0,4.9,1.1,9,3.4,12.4c2.3,3.4,6,5.1,11.1,5.1C548.7,202.6,552.2,200.7,554.4,196.9z"/>
	<path id="XMLID_204_" d="M569.8,162.3h7.9l11.7,37.5l11.6-37.5h7.8v44.3h-5.2v-26.1c0-0.9,0-2.4,0.1-4.5c0-2.1,0.1-4.3,0.1-6.7
		l-11.6,37.4h-5.5l-11.7-37.4v1.4c0,1.1,0,2.7,0.1,5c0,2.2,0.1,3.9,0.1,4.9v26.1h-5.3V162.3z"/>
	<path id="XMLID_206_" d="M660.6,163.6c4.1,2.3,6.5,6.4,7.4,12.2h-5.5c-0.7-3.2-2-5.6-4.1-7.1c-2.1-1.5-4.7-2.2-7.9-2.2
		c-3.8,0-7,1.5-9.5,4.6c-2.6,3.1-3.9,7.7-3.9,13.8c0,5.3,1.1,9.6,3.2,12.9c2.1,3.3,5.6,5,10.4,5c3.7,0,6.7-1.2,9.1-3.5
		c2.4-2.3,3.6-6.1,3.7-11.3h-12.8v-5h17.9v23.7h-3.6l-1.3-5.7c-1.9,2.2-3.5,3.8-5,4.6c-2.4,1.5-5.5,2.2-9.2,2.2
		c-4.8,0-9-1.7-12.5-5.1c-3.8-4.3-5.7-10.1-5.7-17.6c0-7.4,1.8-13.3,5.6-17.7c3.5-4.2,8.1-6.3,13.7-6.3
		C654.5,161.2,657.8,162,660.6,163.6z"/>
	<path id="XMLID_208_" d="M677.9,162.3h18.9c3.1,0,5.7,0.5,7.7,1.5c3.8,1.9,5.7,5.4,5.7,10.5c0,2.7-0.5,4.8-1.5,6.5
		c-1,1.7-2.4,3-4.2,4.1c1.6,0.7,2.8,1.6,3.6,2.8c0.8,1.1,1.3,3,1.3,5.6l0.2,5.9c0.1,1.7,0.2,2.9,0.4,3.8c0.3,1.4,0.9,2.3,1.8,2.7v1
		H705c-0.2-0.4-0.3-0.9-0.4-1.5c-0.1-0.6-0.2-1.8-0.3-3.5l-0.3-7.4c-0.1-2.9-1.1-4.8-3-5.8c-1.1-0.5-2.7-0.8-5-0.8h-12.6v19h-5.5
		V162.3z M696.2,182.6c2.6,0,4.6-0.6,6.1-1.7c1.5-1.1,2.3-3.2,2.3-6.1c0-3.2-1.1-5.3-3.2-6.5c-1.1-0.6-2.6-0.9-4.5-0.9h-13.5v15.1
		H696.2z"/>
	<path id="XMLID_211_" d="M718.8,162.3h29.7v5.4h-24.3v13.4h22.5v5.1h-22.5v15H749v5.3h-30.1V162.3z"/>
	<path id="XMLID_213_" d="M768.1,162.3h6.2l14.8,44.3h-6.1l-4.1-13.3h-16.1l-4.4,13.3h-5.7L768.1,162.3z M777.1,188.5l-6.2-19.6
		l-6.6,19.6H777.1z"/>
	<path id="XMLID_216_" d="M819.6,162.3v5.3h-13.7v39h-5.6v-39h-13.7v-5.3H819.6z"/>
	<path id="XMLID_218_" d="M840,162.3h18.3c3.6,0,6.5,1.1,8.8,3.3c2.2,2.2,3.3,5.3,3.3,9.4c0,3.5-1,6.5-3,9c-2,2.6-5,3.8-9.1,3.8
		h-12.8v18.7H840V162.3z M861.5,168.4c-1.2-0.6-2.9-0.9-5-0.9h-11v15.3h11c2.5,0,4.5-0.6,6-1.7s2.3-3.2,2.3-6.1
		C864.8,171.8,863.7,169.6,861.5,168.4z"/>
	<path id="XMLID_221_" d="M878,162.3h18.9c3.1,0,5.7,0.5,7.7,1.5c3.8,1.9,5.7,5.4,5.7,10.5c0,2.7-0.5,4.8-1.5,6.5
		c-1,1.7-2.4,3-4.2,4.1c1.6,0.7,2.8,1.6,3.6,2.8c0.8,1.1,1.3,3,1.3,5.6l0.2,5.9c0.1,1.7,0.2,2.9,0.4,3.8c0.3,1.4,0.9,2.3,1.8,2.7v1
		h-6.8c-0.2-0.4-0.3-0.9-0.4-1.5c-0.1-0.6-0.2-1.8-0.3-3.5l-0.3-7.4c-0.1-2.9-1.1-4.8-3-5.8c-1.1-0.5-2.7-0.8-5-0.8h-12.6v19H878
		V162.3z M896.3,182.6c2.6,0,4.6-0.6,6.1-1.7c1.5-1.1,2.3-3.2,2.3-6.1c0-3.2-1.1-5.3-3.2-6.5c-1.1-0.6-2.6-0.9-4.5-0.9h-13.5v15.1
		H896.3z"/>
	<path id="XMLID_224_" d="M952,168.7c2.7,3.9,4.1,8.9,4.1,15c0,6.6-1.5,12.1-4.6,16.5c-3.6,5.1-8.8,7.7-15.5,7.7
		c-6.3,0-11.2-2.3-14.8-6.8c-3.2-4.3-4.8-9.8-4.8-16.5c0-6,1.4-11.1,4.1-15.4c3.5-5.5,8.7-8.2,15.6-8.2
		C943.2,161.1,948.5,163.7,952,168.7z M947.1,196.9c2.2-3.8,3.3-8.1,3.3-13.1c0-5.2-1.3-9.4-3.8-12.6c-2.5-3.2-5.9-4.8-10.3-4.8
		c-4.2,0-7.7,1.6-10.3,4.7c-2.7,3.1-4,7.8-4,13.9c0,4.9,1.1,9,3.4,12.4c2.3,3.4,6,5.1,11.1,5.1C941.4,202.6,945,200.7,947.1,196.9z"
		/>
	<path id="XMLID_227_" d="M962.9,162.3h16.5c5.6,0,10,2.2,13,6.5c2.8,3.9,4.1,8.9,4.1,15c0,4.7-0.8,9-2.4,12.8
		c-2.9,6.7-7.8,10.1-14.8,10.1h-16.5V162.3z M978.3,201.5c1.9,0,3.4-0.2,4.6-0.6c2.1-0.8,3.9-2.3,5.3-4.5c1.1-1.8,1.9-4.1,2.4-6.9
		c0.3-1.7,0.4-3.2,0.4-4.6c0-5.5-1-9.8-3-12.8c-2-3-5.2-4.6-9.7-4.6h-9.8v34H978.3z"/>
	<path id="XMLID_230_" d="M1009.7,162.3v27.4c0,3.2,0.6,5.9,1.7,8c1.6,3.2,4.4,4.8,8.3,4.8c4.7,0,7.9-1.7,9.5-5.2
		c0.9-1.9,1.4-4.4,1.4-7.6v-27.4h5.6v24.9c0,5.4-0.7,9.6-2,12.6c-2.5,5.3-7.2,8-14,8s-11.6-2.7-14-8c-1.4-2.9-2-7.1-2-12.6v-24.9
		H1009.7z"/>
	<path id="XMLID_232_" d="M1073.9,165.6c2.8,3,4.4,6.3,4.7,10.1h-5.4c-0.6-2.9-1.8-5.1-3.6-6.8c-1.8-1.7-4.4-2.5-7.7-2.5
		c-4,0-7.3,1.5-9.7,4.6c-2.5,3.1-3.7,7.8-3.7,14.1c0,5.2,1.1,9.4,3.3,12.6s5.6,4.8,10,4.8c4.1,0,7.2-1.7,9.3-5.1
		c1.1-1.8,2-4.1,2.5-7.1h5.4c-0.5,4.7-2.1,8.6-4.8,11.7c-3.2,3.8-7.6,5.7-13.1,5.7c-4.7,0-8.7-1.6-11.9-4.7
		c-4.2-4.1-6.4-10.5-6.4-19.1c0-6.5,1.6-11.9,4.8-16.1c3.4-4.5,8.2-6.8,14.2-6.8C1067.1,161.1,1071.1,162.6,1073.9,165.6z"/>
	<path id="XMLID_234_" d="M1086.3,162.3h29.7v5.4h-24.3v13.4h22.5v5.1h-22.5v15h24.8v5.3h-30.1V162.3z"/>
	<path id="XMLID_236_" d="M1124.4,162.3h18.9c3.1,0,5.7,0.5,7.7,1.5c3.8,1.9,5.7,5.4,5.7,10.5c0,2.7-0.5,4.8-1.5,6.5
		c-1,1.7-2.4,3-4.2,4.1c1.6,0.7,2.8,1.6,3.6,2.8c0.8,1.1,1.3,3,1.3,5.6l0.2,5.9c0.1,1.7,0.2,2.9,0.4,3.8c0.3,1.4,0.9,2.3,1.8,2.7v1
		h-6.8c-0.2-0.4-0.3-0.9-0.4-1.5c-0.1-0.6-0.2-1.8-0.3-3.5l-0.3-7.4c-0.1-2.9-1.1-4.8-3-5.8c-1.1-0.5-2.7-0.8-5-0.8h-12.6v19h-5.5
		V162.3z M1142.6,182.6c2.6,0,4.6-0.6,6.1-1.7c1.5-1.1,2.3-3.2,2.3-6.1c0-3.2-1.1-5.3-3.2-6.5c-1.1-0.6-2.6-0.9-4.5-0.9h-13.5v15.1
		H1142.6z"/>
	<path id="XMLID_239_" d="M1168.3,192.4c0.1,2.5,0.7,4.6,1.6,6.1c1.8,2.9,5.1,4.4,9.7,4.4c2.1,0,4-0.3,5.7-1
		c3.3-1.2,4.9-3.5,4.9-6.7c0-2.4-0.7-4.1-2.1-5.2c-1.4-1-3.6-1.9-6.6-2.6l-5.5-1.4c-3.6-0.9-6.2-1.9-7.7-2.9
		c-2.6-1.8-3.9-4.6-3.9-8.3c0-4,1.3-7.2,3.8-9.8c2.5-2.6,6.1-3.8,10.8-3.8c4.3,0,7.9,1.1,10.9,3.4c3,2.2,4.5,5.8,4.5,10.8h-5.2
		c-0.3-2.4-0.9-4.2-1.8-5.5c-1.7-2.3-4.5-3.5-8.6-3.5c-3.3,0-5.6,0.7-7,2.2s-2.1,3.2-2.1,5.2c0,2.2,0.8,3.8,2.5,4.8
		c1.1,0.6,3.6,1.4,7.4,2.4l5.7,1.4c2.8,0.7,4.9,1.6,6.4,2.8c2.6,2.1,3.9,5.1,3.9,9c0,4.9-1.6,8.4-4.9,10.5
		c-3.3,2.1-7.1,3.2-11.4,3.2c-5.1,0-9-1.4-11.9-4.2c-2.9-2.8-4.3-6.6-4.2-11.4H1168.3z"/>
</g>
</svg>
